<?xml version="1.0" encoding="UTF-8" standalone="no"?>
<!-- Created with Inkscape (http://www.inkscape.org/) -->

<svg
   width="7.3109498mm"
   height="7.3109498mm"
   viewBox="0 0 7.3109498 7.3109498"
   version="1.1"
   id="svg1"
   inkscape:version="1.4.2 (ebf0e940, 2025-05-08)"
   sodipodi:docname="freedium.svg"
   xmlns:inkscape="http://www.inkscape.org/namespaces/inkscape"
   xmlns:sodipodi="http://sodipodi.sourceforge.net/DTD/sodipodi-0.dtd"
   xmlns="http://www.w3.org/2000/svg"
   xmlns:svg="http://www.w3.org/2000/svg">
  <sodipodi:namedview
     id="namedview1"
     pagecolor="#ffffff"
     bordercolor="#000000"
     borderopacity="0.25"
     inkscape:showpageshadow="2"
     inkscape:pageopacity="0.0"
     inkscape:pagecheckerboard="0"
     inkscape:deskcolor="#d1d1d1"
     inkscape:document-units="mm"
     inkscape:zoom="16.979417"
     inkscape:cx="21.673301"
     inkscape:cy="14.664815"
     inkscape:window-width="1968"
     inkscape:window-height="843"
     inkscape:window-x="2146"
     inkscape:window-y="168"
     inkscape:window-maximized="0"
     inkscape:current-layer="layer1"
     showgrid="false" />
  <defs
     id="defs1" />
  <g
     inkscape:label="Capa 1"
     inkscape:groupmode="layer"
     id="layer1"
     transform="translate(-95.340332,-145.69228)">
    <path
       id="rect1"
       style="fill:#ffffff;stroke-width:1.16217"
       d="M 96.244153 145.69228 C 95.743453 145.69228 95.340332 146.0954 95.340332 146.5961 L 95.340332 152.09964 C 95.340332 152.60034 95.743453 153.00346 96.244153 153.00346 L 101.74769 153.00346 C 102.24839 153.00346 102.65151 152.60034 102.65151 152.09964 L 102.65151 146.5961 C 102.65151 146.0954 102.24839 145.69228 101.74769 145.69228 L 96.244153 145.69228 z M 95.824023 147.11545 L 99.227433 147.11545 L 99.227433 148.65231 L 99.215031 148.65231 L 98.395959 147.34438 C 98.353629 147.27668 98.293876 147.24257 98.217676 147.24257 L 97.563969 147.24257 C 97.517399 147.24257 97.487785 147.25049 97.475085 147.26789 C 97.462385 147.28059 97.455965 147.3127 97.455965 147.3635 L 97.455965 149.28121 L 97.88798 149.28121 C 97.95148 149.27721 98.006261 149.24762 98.052828 149.19232 L 98.624369 148.5319 L 98.636772 148.5319 L 98.636772 150.15092 L 98.624369 150.15092 L 98.052828 149.4905 C 98.002028 149.4354 97.944762 149.40782 97.881262 149.40782 L 97.455965 149.40782 L 97.455965 150.97671 C 97.455965 151.03601 97.479158 151.08434 97.525728 151.12244 L 98.110189 151.56686 L 98.110189 151.57978 L 95.824023 151.57978 L 95.824023 151.56686 L 96.24932 151.16688 C 96.28742 151.12878 96.306681 151.07794 96.306681 151.01444 L 96.306681 147.68079 C 96.306681 147.61729 96.28742 147.56647 96.24932 147.52834 L 95.824023 147.12837 L 95.824023 147.11545 z M 101.71049 148.38566 C 101.89252 148.38566 102.03615 148.45581 102.14198 148.59546 L 101.79317 149.5923 L 101.78025 149.5923 L 101.27847 148.99544 C 101.24037 148.94884 101.20237 148.9379 101.16427 148.9634 C 101.08387 149.0227 100.99301 149.14558 100.89141 149.33185 L 100.89141 151.04648 C 100.89141 151.10998 100.923 151.16275 100.9865 151.20512 L 101.60868 151.56686 L 101.60868 151.57978 L 99.481681 151.57978 L 99.481681 151.56686 L 99.792773 151.27488 C 99.830873 151.24098 99.849617 151.19014 99.849617 151.12244 L 99.849617 148.92567 C 99.849617 148.86217 99.830873 148.80888 99.792773 148.76651 L 99.481681 148.44922 L 99.481681 148.4363 L 100.89141 148.4363 L 100.89141 149.24917 C 100.95071 148.9994 101.04989 148.79406 101.18959 148.63319 C 101.32929 148.46809 101.50306 148.38566 101.71049 148.38566 z "
       inkscape:export-filename="rect1.png"
       inkscape:export-xdpi="1778.76"
       inkscape:export-ydpi="1778.76" />
  </g>
</svg>
