<?xml version="1.0" encoding="UTF-8" standalone="no"?>
<!-- Created with Inkscape (http://www.inkscape.org/) -->

<svg
   width="1023.9999"
   height="1023.9999"
   viewBox="0 0 270.93333 270.93333"
   version="1.1"
   id="svg1"
   xmlns:xlink="http://www.w3.org/1999/xlink"
   xmlns="http://www.w3.org/2000/svg"
   xmlns:svg="http://www.w3.org/2000/svg">
  <defs
     id="defs1">
    <linearGradient
       xlink:href="#linearGradient49"
       id="linearGradient50"
       x1="512"
       y1="1.5263186e-07"
       x2="512"
       y2="1024"
       gradientUnits="userSpaceOnUse"
       gradientTransform="matrix(0.21290681,0,0,-0.21290681,26.458298,244.4749)" />
    <linearGradient
       id="linearGradient49">
      <stop
         style="stop-color:#aeaeae;stop-opacity:1;"
         offset="0"
         id="stop49" />
      <stop
         style="stop-color:#ffffff;stop-opacity:1;"
         offset="0.50298506"
         id="stop50" />
    </linearGradient>
  </defs>
  <g
     id="layer1">
    <path
       id="path1"
       style="fill:url(#linearGradient50);fill-opacity:1;fill-rule:nonzero;stroke:none;stroke-width:0.212906"
       d="m 104.07936,26.458336 c -2.43453,2.8e-4 -4.868802,0.002 -7.303498,0.0178 -2.554016,0.0147 -5.107508,0.044 -7.660891,0.1132 -5.563893,0.15095 -11.176315,0.47853 -16.678474,1.46769 -5.581986,1.00322 -10.777113,2.64107 -15.848556,5.22235 -4.984573,2.53743 -9.546123,5.85237 -13.50108,9.80754 -3.955168,3.95496 -7.270109,8.5165 -9.807535,13.50108 -2.581278,5.07144 -4.219134,10.26657 -5.222358,15.84856 -0.989168,5.50215 -1.316623,11.11457 -1.467363,16.67847 -0.06941,2.55339 -0.09884,5.10687 -0.113534,7.660901 -0.01454,2.20767 -0.01732,4.414873 -0.01774,6.622363 v 63.44132 c 0,2.43928 0.0024,4.87839 0.01774,7.31784 0.01467,2.55403 0.04412,5.10751 0.113534,7.66091 0.15074,5.56409 0.478195,11.1764 1.467363,16.67875 1.003224,5.58178 2.64108,10.77651 5.222358,15.84795 2.537426,4.98479 5.852367,9.54622 9.807535,13.50138 3.954957,3.95496 8.516507,7.27034 13.50108,9.80754 5.071443,2.58151 10.26657,4.21893 15.848556,5.22236 5.502159,0.98894 11.114581,1.31641 16.678474,1.46738 2.553383,0.0692 5.106875,0.0985 7.660891,0.11321 2.497305,0.0158 4.994108,0.0179 7.491248,0.0181 h 62.39875 c 2.49714,0 4.99425,-0.002 7.49155,-0.0181 2.55403,-0.0147 5.10751,-0.044 7.6609,-0.11321 5.5641,-0.15097 11.17641,-0.47844 16.67878,-1.46738 5.58178,-1.00343 10.77649,-2.64085 15.84793,-5.22236 4.9848,-2.5372 9.54622,-5.85258 13.5014,-9.80754 3.20898,-3.20915 5.9968,-6.81754 8.28964,-10.72725 h -47.68073 v -0.47718 l 11.46641,-10.7313 c 1.39696,-1.22502 2.09518,-3.08697 2.09518,-5.58601 v -80.74105 c 0,-2.35204 -0.69822,-4.31206 -2.09518,-5.8801 l -11.46641,-11.65009 v -0.44037 h 51.81869 v 29.87827 c 1.0622,-4.42523 2.4625,-8.46961 4.20098,-12.1332 v -15.09102 c -1.8e-4,-2.49714 0,-4.993943 -0.0181,-7.491233 -0.0145,-2.554041 -0.0441,-5.107521 -0.11322,-7.660911 -0.15094,-5.56389 -0.47841,-11.17631 -1.46739,-16.67846 -1.00342,-5.58199 -2.64084,-10.77713 -5.22233,-15.84857 -2.53721,-4.98457 -5.85258,-9.54612 -9.80754,-13.50107 -3.95518,-3.95518 -8.5166,-7.27012 -13.5014,-9.80754 -5.07144,-2.58128 -10.26615,-4.21913 -15.84793,-5.22235 -5.50237,-0.98917 -11.11468,-1.31674 -16.67878,-1.46769 -2.55339,-0.0692 -5.10687,-0.0985 -7.6609,-0.11321 -2.43469,-0.0154 -4.86897,-0.0175 -7.30349,-0.0178 z m 75.07523,26.6067 v 56.485604 h -0.47624 L 148.54248,61.444186 c -1.5435,-2.47456 -3.7118,-3.71194 -6.5051,-3.71194 h -24.03405 c -1.71525,0 -2.81797,0.3065 -3.30806,0.9191 -0.44078,0.49008 -0.66117,1.66598 -0.66117,3.52794 v 70.450734 h 15.87601 c 2.32783,-0.14715 4.34885,-1.23728 6.06348,-3.27063 l 20.98484,-24.25547 h 0.47654 v 59.53604 h -0.47654 l -20.98484,-24.29228 c -1.86176,-2.03354 -3.96831,-3.05013 -6.32015,-3.05013 H 114.0341 v 57.66167 c 0,2.18059 0.85745,3.96898 2.57204,5.36549 l 21.46293,16.31731 v 0.4775 H 54.057377 v -0.4775 l 15.618091,-14.70023 c 1.420947,-1.39651 2.131665,-3.25846 2.131665,-5.58599 V 73.829386 c 0,-2.3276 -0.710718,-4.1898 -2.131665,-5.58631 L 54.057377,53.542836 v -0.47749 z M 244.475,127.56953 c -1.33884,1.95769 -2.73914,4.26931 -4.20098,6.93486 v 63.02718 c 0,1.70416 0.62395,3.19807 1.87188,4.48195 0.27425,-1.15631 0.51669,-2.32751 0.73039,-3.5164 0.98898,-5.50235 1.31645,-11.11466 1.46739,-16.67875 0.0692,-2.5534 0.0985,-5.10688 0.11322,-7.66091 0.0157,-2.4973 0.0181,-4.99441 0.0181,-7.49155 z" />
  </g>
</svg>
