<svg width="106.56" height="17.688" viewBox="0 0 28.194 4.68" xmlns="http://www.w3.org/2000/svg" class="fill-current">
    <path d="M99.134 147.173v1.537h-.013l-.82-1.309q-.063-.101-.177-.101h-.654q-.07 0-.09.025-.018.02-.018.096v1.917h.432q.095-.006.165-.089l.571-.66h.013v1.62h-.013l-.571-.661q-.076-.083-.172-.083h-.425v1.569q0 .089.07.146l.584.444v.013H95.73v-.013l.425-.4q.058-.057.058-.152v-3.334q0-.095-.058-.152l-.425-.4v-.013zm2.914 1.48-.35.996h-.012l-.501-.597q-.058-.07-.115-.031-.12.089-.273.368v1.715q0 .095.095.158l.623.362v.013h-2.128v-.013l.312-.292q.057-.05.057-.152v-2.197q0-.096-.057-.16l-.312-.317v-.012h1.41v.813q.09-.375.299-.616.21-.248.52-.248.273 0 .432.21zm3.004 1.27h-1.905v.012q0 .584.254.876.254.286.654.286.673 0 .965-.584h.013q-.242 1.175-1.404 1.175-.654 0-1.105-.407-.45-.406-.45-1.193 0-.832.45-1.239.451-.406 1.143-.406.267 0 .502.07t.438.216q.21.146.33.419.121.266.121.635 0 .063-.006.14zm-1.397-1.36q-.248 0-.375.293-.127.285-.133.952h.933q.006-.082.006-.19 0-.59-.114-.82-.108-.234-.318-.234zm4.686 1.36h-1.905v.012q0 .584.254.876.254.286.654.286.673 0 .965-.584h.013q-.241 1.175-1.403 1.175-.654 0-1.105-.407-.451-.406-.451-1.193 0-.832.45-1.239.452-.406 1.144-.406.266 0 .501.07t.438.216q.21.146.33.419.121.266.121.635 0 .063-.006.14zm-1.397-1.36q-.248 0-.375.293-.127.285-.133.952h.933q.006-.082.006-.19 0-.59-.114-.82-.108-.234-.317-.234zm4.94-1.555v4.153q0 .101.057.152l.318.311v.013h-1.41v-.597q-.28.648-.933.648-.559 0-.908-.426-.343-.425-.343-1.187 0-.73.38-1.181.388-.451.985-.451.59 0 .82.508v-1.315q0-.101-.064-.158l-.305-.292v-.013zm-1.48 4.203q.261 0 .445-.24v-1.963q-.152-.197-.413-.197-.292 0-.482.299-.19.292-.19.933 0 .61.17.89.179.278.47.278zm2.903-3.067q-.21 0-.362-.127-.146-.133-.146-.342 0-.223.146-.356.152-.14.362-.14.222 0 .368.14.146.133.146.356 0 .21-.146.342-.146.127-.368.127zm-.87.35h1.41v2.686q0 .101.057.152l.31.292v.013h-1.777v-.013l.31-.292q.058-.05.058-.152v-2.197q0-.096-.057-.16l-.311-.317zm5.188 0v2.66q0 .108.057.16l.317.31v.013h-1.416v-.68q-.12.337-.374.534t-.597.197q-.47 0-.718-.337-.248-.336-.248-.984 0-.362.013-1.39 0-.096-.057-.153l-.311-.318v-.012h1.403l-.006.838v.889q0 .463.096.705.095.241.342.241.26 0 .458-.286v-1.898q0-.096-.058-.16l-.31-.317v-.012zm5.943 1.289q0 .247-.012.768-.006.52-.006.629 0 .095.063.152l.311.292v.013h-1.778v-.013l.299-.292q.063-.063.063-.146l.006-.552q.013-.527.013-.705 0-.476-.108-.718-.102-.241-.381-.241-.292 0-.502.273.057.235.057.54 0 .228-.012.762-.006.527-.006.635 0 .095.057.152l.317.292v.013h-1.784v-.013l.305-.292q.057-.057.057-.146l.006-.546q.013-.533.013-.711 0-.476-.102-.718-.101-.241-.38-.241-.28 0-.47.28v1.93q0 .101.056.152l.312.292v.013h-1.778v-.013l.31-.292q.058-.05.058-.152v-2.197q0-.096-.057-.16l-.311-.317v-.012h1.41v.673q.26-.724 1.009-.724.717 0 .92.75.115-.331.394-.54.28-.21.667-.21.476 0 .73.343t.254.997z" aria-label="Freedium" transform="translate(-95.73 -147.008)" fill="currentColor" />
</svg>
